<?xml version="1.0" standalone="no"?>
<!DOCTYPE svg PUBLIC "-//W3C//DTD SVG 1.1//EN" "http://www.w3.org/Graphics/SVG/1.1/DTD/svg11.dtd" >
<svg xmlns="http://www.w3.org/2000/svg">
<metadata></metadata>
<defs>
<font id="bariol_icons_basicregular" horiz-adv-x="1413" >
<font-face units-per-em="2048" ascent="1536" descent="-512" />
<missing-glyph horiz-adv-x="335" />
<glyph />
<glyph />
<glyph unicode="&#xd;" />
<glyph unicode=" "  horiz-adv-x="335" />
<glyph unicode="&#x09;" horiz-adv-x="335" />
<glyph unicode="&#xa0;" horiz-adv-x="335" />
<glyph unicode="A" horiz-adv-x="2547" d="M137 375q0 26 13 56t46 67t82.5 71t130.5 68t181 59q0 141 53 250.5t147 178.5t217 104t269 35q145 0 267.5 -35t216 -104t146 -178.5t52.5 -250.5q101 -25 181.5 -59t130 -68t82.5 -71t45.5 -67t12.5 -56q0 -35 -16 -71.5t-55 -76.5t-97.5 -76t-150 -69t-205 -57 t-270.5 -38t-340 -14t-340.5 14t-272 38t-206 57t-150.5 69t-98 76t-55.5 76.5t-16.5 71.5zM393 375q0 -38 22 -61t60 -23t60 23t22 61t-22 61t-60 23t-60 -23t-22 -61zM774 676q0 -100 120 -138t382 -38q129 0 218 8t155 27.5t97.5 54.5t31.5 86q0 191 -129.5 298 t-372.5 107q-245 0 -373.5 -106.5t-128.5 -298.5zM1114 723q0 84 37 131v61q-12 4 -12 25q0 31 30 31q35 0 35 -31q0 -19 -12 -25v-30q32 14 84 14t84 -14v30q-12 6 -12 25q0 31 34 31q31 0 31 -31q0 -21 -12 -25v-61q37 -47 37 -131q0 -85 -40 -131.5t-122 -46.5t-122 46.5 t-40 131.5zM1149 700q0 -14 14 -20l43 -21q12 -6 17 -6q9 0 15.5 7t6.5 16q0 14 -12 20l-47 23q-8 4 -15 4q-8 0 -15 -6.5t-7 -16.5zM1194 207q0 -38 22 -61t60 -23t60 23t22 61t-22 61t-60 23t-60 -23t-22 -61zM1305 676q0 -9 6.5 -16t15.5 -7q4 0 16 6l43 21q15 6 15 20 q0 10 -7.5 16.5t-15.5 6.5q-6 0 -14 -4l-47 -23q-12 -6 -12 -20zM1989 375q0 -38 22 -61t60 -23t59.5 22.5t21.5 61.5t-21.5 61.5t-59.5 22.5t-60 -23t-22 -61z" />
<glyph unicode="B" horiz-adv-x="1949" d="M92 311q0 34 24 58t58 24q30 127 106 202t203 75h342q39 0 67 -28t28 -67q0 -53 -21 -92l-51 -90h280q35 0 57.5 17.5t22.5 50.5v254q0 49 39 71l-33 58q-6 12 -6 26q0 21 16 38.5t40 17.5q31 0 47 -29l237 -438q42 10 78 10q109 0 170.5 -59.5t61.5 -173.5 q0 -115 -61.5 -175.5t-170.5 -60.5q-110 0 -171.5 60.5t-61.5 175.5q0 111 61 172l-80 145v-92q0 -97 -71.5 -165.5t-169.5 -68.5h-385q-1 -111 -62.5 -169t-167.5 -58q-109 0 -170.5 58t-62.5 169h-111q-34 0 -58 24t-24 60zM319 791v38q0 37 25 63t62 26h475q36 0 61 -26 t25 -63v-38q0 -34 -25 -60t-61 -26h-475q-36 0 -61.5 26t-25.5 60zM424 227q2 -41 26 -63.5t68 -22.5q40 0 63.5 22.5t26.5 63.5h-184zM1151 985v64q0 9 7 15.5t16 6.5h106l141 64q12 6 21 6q14 0 23.5 -9.5t9.5 -23.5v-182q0 -14 -9.5 -23.5t-23.5 -9.5q-9 0 -21 6l-141 64 h-106q-9 0 -16 6.5t-7 15.5zM1532 236q0 -46 25 -70.5t69 -24.5q42 0 67 24.5t25 70.5q0 45 -25 69.5t-67 24.5q-43 0 -68.5 -24.5t-25.5 -69.5z" />
<glyph unicode="C" horiz-adv-x="2609" d="M129 918q0 63 64 63h73v195q0 26 14.5 40.5t36.5 14.5h101q77 0 121 -47t57 -125h63q60 229 291.5 343t605.5 114q217 0 385.5 -37.5t290 -114t185 -198.5t63.5 -285q0 -445 -471 -578l-190 -254q-40 -49 -101 -49h-544q-29 0 -48.5 21.5t-19.5 52.5v229 q-205 60 -332 199.5t-137 347.5h-444q-64 0 -64 68zM266 653v121h330q-13 -81 -57 -130.5t-121 -49.5h-101q-21 0 -36 17.5t-15 41.5zM1243 168q0 -53 49 -53q51 0 51 53t-51 53q-24 0 -36.5 -14.5t-12.5 -38.5zM1407 166q0 -51 51 -51q24 0 36.5 14t12.5 37q0 55 -49 55 q-51 0 -51 -55zM1569 168q0 -53 49 -53t49 53t-49 53t-49 -53z" />
<glyph unicode="D" horiz-adv-x="2353" d="M115 254v35q0 25 17.5 43t43.5 18q16 128 58.5 234t101 181t136 132.5t158 93t172.5 57.5t174 30.5t169 8.5q236 0 381 -90.5t186 -246.5q112 -11 190 -35t139 -69.5t94 -118t42 -177.5q26 0 43.5 -18t17.5 -43v-35q0 -25 -17.5 -42t-43.5 -17h-139q-9 -94 -69.5 -144.5 t-160.5 -50.5q-99 0 -158 50t-71 145h-780q-9 -94 -70.5 -144.5t-161.5 -50.5q-97 0 -156.5 50t-72.5 145h-162q-26 0 -43.5 17t-17.5 42zM475 238q0 -46 24.5 -70.5t67.5 -24.5q45 0 70 24t25 71q0 44 -25.5 69t-69.5 25q-43 0 -67.5 -25t-24.5 -69zM625 793 q0 -22 14.5 -37t36.5 -15h383q13 0 22 9.5t9 21.5v182q0 14 -9 23.5t-22 9.5q-131 0 -250 -38t-170 -115q-14 -20 -14 -41zM1186 772q0 -12 10 -21.5t23 -9.5h325q13 0 23 9.5t10 21.5q0 14 -8 25q-43 99 -137 144.5t-213 45.5q-13 0 -23 -9.5t-10 -23.5v-182zM1716 238 q0 -46 25 -70.5t67 -24.5q44 0 68.5 24.5t24.5 70.5q0 44 -25 69t-68 25q-42 0 -67 -25t-25 -69z" />
<glyph unicode="E" horiz-adv-x="1855" d="M92 942q0 211 113.5 323.5t316.5 112.5q159 0 263.5 -68t142.5 -200q38 132 142.5 200t262.5 68q203 0 316.5 -112.5t113.5 -323.5q0 -224 -121 -336l-649 -606q-27 -27 -65 -27q-39 0 -66 27l-649 606q-121 112 -121 336z" />
<glyph unicode="F" horiz-adv-x="1732" d="M102 989q0 267 113 407t324 140h655q210 0 323 -140t113 -407q0 -265 -112.5 -404t-323.5 -139h-303l-246 -438q-18 -33 -51 -33q-23 0 -40 17.5t-17 40.5v413q-209 0 -322 139t-113 404zM653 725q0 -19 13 -32t32 -13q11 0 23 6l145 84l146 -84q12 -6 22 -6q19 0 32 13 t13 32q0 25 -22 39l-109 61l109 62q22 14 22 39q0 19 -13 32t-32 13q-10 0 -22 -6l-146 -84l-145 84q-12 6 -23 6q-19 0 -32 -13t-13 -32q0 -25 23 -39l108 -62l-108 -61q-23 -14 -23 -39zM727 1206q0 -88 66 -125v-28q0 -70 73 -70q76 0 76 70v28q62 37 62 125 q0 68 -36.5 104t-101.5 36q-64 0 -101.5 -36t-37.5 -104z" />
<glyph unicode="G" horiz-adv-x="1376" d="M63 1165q0 97 91.5 181t193.5 84q108 0 180 -99q9 -12 9 -22q0 -21 -19 -37l-336 -271q-13 -10 -26 -10q-19 0 -31 15q-62 77 -62 159zM115 55q0 36 22 58l146 147q-119 135 -119 369q0 258 139 396t385 138t385 -138t139 -396q0 -235 -118 -369l145 -147q23 -23 23 -58 q0 -34 -24 -58t-58 -24q-35 0 -60 25l-157 162q-108 -58 -275 -58q-166 0 -274 58l-158 -162q-25 -25 -59 -25t-58 24t-24 58zM633 602q0 -23 16 -39t39 -16h287q23 0 39 16t16 39t-16 39t-39 16h-232v275q0 23 -16 39t-39 16t-39 -16t-16 -39v-330zM840 1309q0 11 8 22 q72 99 180 99q102 0 193.5 -84t91.5 -181q0 -82 -62 -159q-12 -15 -30 -15q-14 0 -27 10l-336 271q-18 15 -18 37z" />
<glyph unicode="H" horiz-adv-x="1280" d="M127 1712q0 28 20 48t48 20h172v39q0 13 10.5 23.5t23.5 10.5h217q14 0 24.5 -10.5t10.5 -23.5v-39h172q28 0 48 -20t20 -48t-20 -47.5t-48 -19.5h-630q-28 0 -48 19.5t-20 47.5zM131 1503q-1 39 24.5 67.5t59.5 28.5h586q34 0 59 -28.5t25 -67.5v-39q35 27 80 27 q182 0 182 -303q0 -90 -17.5 -153.5t-47.5 -95t-61.5 -45t-68.5 -13.5q-27 0 -55.5 9t-40.5 21q-16 -141 -111 -211.5t-235 -70.5q-150 0 -244.5 81t-103.5 244zM147 80l52 338q3 23 21 41t46 18h15q-21 21 -21 49t20 48t48 20h364q28 0 48 -20t20 -48t-21 -49h15 q28 0 46 -18t21 -41l51 -338q4 -30 -16.5 -55t-48.5 -25h-594q-28 0 -49 25q-18 21 -18 46q0 4 1 9zM254 1006q0 -12 8.5 -20.5t20.5 -8.5h34q12 0 20.5 8.5t8.5 20.5t-8.5 20t-20.5 8h-34q-12 0 -20.5 -8t-8.5 -20zM254 1139q0 -12 8.5 -20.5t20.5 -8.5h34q12 0 20.5 8.5 t8.5 20.5t-8.5 20t-20.5 8h-34q-12 0 -20.5 -8t-8.5 -20zM254 1272q0 -12 8.5 -20.5t20.5 -8.5h34q12 0 20.5 8.5t8.5 20.5t-8.5 20t-20.5 8h-34q-12 0 -20.5 -8t-8.5 -20zM254 1405q0 -12 8.5 -20.5t20.5 -8.5h34q12 0 20.5 8.5t8.5 20.5t-8.5 20.5t-20.5 8.5h-34 q-12 0 -20.5 -8.5t-8.5 -20.5zM862 1063q30 -49 90 -49q46 0 67 42t21 132q0 88 -21 130t-67 42q-43 0 -73 -37z" />
<glyph unicode="I" horiz-adv-x="1118" d="M70 911q0 36 24 61t60 25h30v25q0 122 71 194t210 89v53h-33q-13 0 -22 8t-9 20v259q0 11 9 18.5t22 7.5h213q13 0 22 -7.5t9 -18.5v-259q0 -12 -9 -20t-22 -8h-33v-53q139 -17 210 -89t71 -194v-25h31q36 0 60 -25t24 -61q0 -34 -24 -59t-60 -25h-31v-571 q0 -136 -90.5 -209.5t-263.5 -73.5t-264 73.5t-91 209.5v571h-30q-36 0 -60 25t-24 59zM588 1538q0 -33 30 -33q31 0 31 33t-31 33q-30 0 -30 -33zM702 1538q0 33 31 33t31 -33t-31 -33t-31 33zM791 1446q0 33 30 33q31 0 31 -33t-31 -33q-30 0 -30 33zM791 1538q0 33 30 33 q31 0 31 -33t-31 -33q-30 0 -30 33zM791 1630q0 33 30 33q31 0 31 -33t-31 -33q-30 0 -30 33zM879 1354q0 32 30 32q31 0 31 -32q0 -33 -31 -33q-30 0 -30 33zM879 1446q0 33 30 33q31 0 31 -33t-31 -33q-30 0 -30 33zM879 1538q0 33 30 33q31 0 31 -33t-31 -33 q-30 0 -30 33zM879 1630q0 33 30 33q31 0 31 -33t-31 -33q-30 0 -30 33zM879 1722q0 33 30 33q31 0 31 -33q0 -32 -31 -32q-30 0 -30 32zM967 1268q0 32 30 32q31 0 31 -32q0 -33 -31 -33q-30 0 -30 33zM967 1354q0 32 30 32q31 0 31 -32q0 -33 -31 -33q-30 0 -30 33z M967 1446q0 33 30 33q31 0 31 -33t-31 -33q-30 0 -30 33zM967 1538q0 33 30 33q31 0 31 -33t-31 -33q-30 0 -30 33zM967 1630q0 33 30 33q31 0 31 -33t-31 -33q-30 0 -30 33zM967 1722q0 33 30 33q31 0 31 -33q0 -32 -31 -32q-30 0 -30 32zM967 1808q0 33 30 33q31 0 31 -33 q0 -32 -31 -32q-30 0 -30 32z" />
<glyph unicode="J" horiz-adv-x="2107" d="M164 193v677q0 82 57 139.5t137 57.5h129v41q0 28 20 48t48 20t48 -20t20 -48v-41h3h3h3h3h3h3h3h3h3h3h3h3h3h3h3h3h3h3h3h2h3h3h3h9q0 94 40 158.5t112 64.5h403q53 0 89 -36.5t49.5 -84.5t13.5 -102h342q80 0 137.5 -58t57.5 -139v-677q0 -79 -57.5 -136t-137.5 -57 h-1391q-80 0 -137 57t-57 136zM664 532q0 -190 103.5 -291.5t285.5 -101.5q184 0 287.5 101.5t103.5 291.5q0 194 -103.5 296t-287.5 102q-183 0 -286 -102t-103 -296zM852 530q0 101 53 154t148 53q97 0 149.5 -52.5t52.5 -154.5q0 -99 -53 -152.5t-149 -53.5 q-95 0 -148 53.5t-53 152.5z" />
<glyph unicode="K" horiz-adv-x="1232" d="M78 600h1077q-5 -301 -138 -463t-401 -162q-270 0 -401.5 161.5t-136.5 463.5zM78 651q6 337 170 498q-33 76 -33 192q0 198 106 305t295 107t295.5 -107t106.5 -305q0 -116 -33 -192q164 -164 170 -498h-1077zM367 1341q5 -119 71 -186.5t178 -67.5t178.5 67.5 t71.5 186.5q-97 0 -163 48t-87 145q-19 -97 -85.5 -145t-163.5 -48zM373 936q0 -14 16.5 -26.5t46.5 -12.5q42 0 80 22t62 58q13 -21 38 -21q26 0 39 21q24 -36 62 -58t80 -22q30 0 46.5 12.5t16.5 26.5q0 36 -39.5 64t-85.5 28q-27 0 -73 -16q-6 35 -46 35q-39 0 -45 -35 q-46 16 -73 16q-46 0 -85.5 -28t-39.5 -64zM461 1288q0 33 33 33q32 0 32 -33t-32 -33q-33 0 -33 33zM707 1288q0 33 32 33q33 0 33 -33t-33 -33q-32 0 -32 33z" />
<glyph unicode="L" horiz-adv-x="2115" d="M90 195v43q0 22 15.5 37.5t37.5 15.5h731q5 -17 21 -30t39 -13h248q21 0 37.5 13.5t21.5 29.5h727q22 0 37.5 -15.5t15.5 -37.5v-43q0 -80 -56.5 -137.5t-137.5 -57.5h-1540q-81 0 -139 57.5t-58 137.5zM246 539v690q0 82 55 138t137 56h1237q82 0 138.5 -56t56.5 -138 v-690q0 -79 -57 -136t-138 -57h-1237q-81 0 -136.5 57t-55.5 136zM426 547q0 -21 20 -21h1221q9 0 15 6t6 15v674q0 20 -21 20h-1221q-20 0 -20 -20v-674zM1014 1333q0 -45 43 -45t43 45t-43 45t-43 -45z" />
<glyph unicode="M" horiz-adv-x="1714" d="M94 158v43q0 19 13 32t32 13h1184q19 0 32 -13t13 -32v-43q0 -66 -47 -112t-113 -46h-954q-66 0 -113 46t-47 112zM231 758v321q0 60 42 102t102 42h710q57 0 98.5 -38t45.5 -95q50 16 98 16q145 0 219 -83t74 -237q0 -144 -75.5 -232.5t-217.5 -88.5q-85 0 -149 31 q-106 -217 -445 -217q-254 0 -378 118t-124 361zM1223 668q39 -39 104 -39q66 0 94.5 36t28.5 121q0 84 -28.5 121t-94.5 37q-57 0 -98 -41v-145q0 -52 -6 -90z" />
<glyph unicode="N" horiz-adv-x="2193" d="M117 383q0 105 88 133q-88 28 -88 133q0 67 36 105.5t105 38.5q75 0 117 -45l86 -95h395q46 286 297 383q52 -233 309 -233q258 0 310 233q305 -119 305 -506q0 -283 -160 -420t-455 -137q-524 0 -600 406h-401l-86 -94q-42 -45 -117 -45q-69 0 -105 38t-36 105z" />
<glyph unicode="O" horiz-adv-x="1855" d="M102 1114q0 30 21 51t51 21h51v20q0 61 92 92l316 111l-23 59q-6 15 -6 25q0 12 9 22.5t26 10.5h131q-10 30 -10 59l4 39h-41q-19 0 -33 13t-14 32t14 32t33 13h47v43q0 60 40.5 92.5t117.5 32.5q155 0 155 -125v-43h50q19 0 32 -13t13 -32t-13 -32t-32 -13h-43 q4 -21 4 -39q0 -26 -11 -59h134q17 0 25.5 -10t8.5 -23q0 -10 -6 -25l-22 -59l315 -111q92 -31 92 -92v-20h51q29 0 50.5 -21.5t21.5 -50.5t-21.5 -50.5t-50.5 -21.5h-51v-696q0 -38 -27 -66t-65 -28h-326v-176q0 -42 -30 -72.5t-72 -30.5q-43 0 -72.5 30t-29.5 73v176h-160 v-176q0 -43 -30 -73t-73 -30q-41 0 -71.5 30.5t-30.5 72.5v176h-326q-39 0 -65.5 27.5t-26.5 66.5v696h-51q-30 0 -51 21t-21 51zM788 592q0 -19 14 -33t34 -14q18 0 32 14l60 59l57 -59q14 -14 35 -14q20 0 32.5 14t12.5 33q0 21 -14 35l-56 57l56 55q14 14 14 35 q0 19 -12.5 33t-32.5 14q-21 0 -35 -14l-57 -59l-60 59q-14 14 -32 14q-20 0 -34 -14t-14 -33q0 -18 17 -35l53 -55l-53 -57q-17 -17 -17 -35z" />
<glyph unicode="P" horiz-adv-x="1593" d="M109 268q0 32 12 62l311 774l-108 164q-60 0 -92.5 32t-32.5 93q0 30 10 53l-37 55q-10 15 -10 37q0 27 20.5 49.5t50.5 22.5q35 0 58 -33l39 -57q114 -6 114 -127q0 -31 -2 -43l54 -84l163 407q18 41 54 66.5t84 25.5t83.5 -25t53.5 -67l539 -1343q12 -30 12 -62 q0 -62 -42.5 -105.5t-105.5 -43.5h-133v-17q0 -54 -37.5 -91.5t-91.5 -37.5t-91.5 37.5t-37.5 91.5v17h-299v-17q0 -54 -37.5 -91.5t-91.5 -37.5t-91.5 37.5t-37.5 91.5v17h-133q-62 0 -104.5 43.5t-42.5 105.5zM516 793q0 -42 27.5 -70.5t68.5 -28.5h88l-143 215l-35 -84 q-6 -18 -6 -32zM621 1071l247 -377h111q38 0 66 29t28 70q0 14 -6 32l-182 467q-10 26 -33.5 44t-54.5 18t-54.5 -18t-33.5 -44z" />
<glyph unicode="Q" horiz-adv-x="1046" d="M86 338q0 190 129 283q-31 71 -31 151q0 127 66.5 202.5t191.5 96.5v547h-16q-11 0 -19 7t-8 17h-12q-12 0 -20.5 8.5t-8.5 20.5q0 11 8.5 19t20.5 8h12v53h-12q-12 0 -20.5 8t-8.5 19q0 12 8.5 20t20.5 8h12v52h-12q-12 0 -20.5 8t-8.5 20q0 11 8.5 19t20.5 8h12v14 q0 11 7.5 18t19.5 7h27q18 47 71 47q54 0 72 -47h27q12 0 19 -7t7 -18v-14h13q11 0 19.5 -8.5t8.5 -18.5q0 -12 -8.5 -20t-19.5 -8h-13v-52h13q11 0 19.5 -8t8.5 -20q0 -10 -8.5 -18.5t-19.5 -8.5h-13v-53h13q11 0 19.5 -8.5t8.5 -18.5q0 -12 -8.5 -20.5t-19.5 -8.5h-13 q0 -10 -7.5 -17t-18.5 -7h-17v-547q125 -21 191.5 -96.5t66.5 -202.5q0 -83 -30 -151q129 -93 129 -283q0 -178 -116 -272.5t-323 -94.5t-322.5 94.5t-115.5 272.5zM373 229q0 -9 7.5 -14.5t16.5 -5.5h254q9 0 16 5.5t7 14.5v39q0 10 -7 16.5t-16 6.5h-254q-9 0 -16.5 -6.5 t-7.5 -16.5v-39zM379 649q0 -69 38 -107t107 -38t107.5 38t38.5 107t-38.5 107.5t-107.5 38.5t-107 -38.5t-38 -107.5zM426 649q0 99 98 99q99 0 99 -99q0 -98 -99 -98q-98 0 -98 98z" />
<glyph unicode="R" horiz-adv-x="1806" d="M82 145q0 211 54.5 410.5t127.5 355.5q51 107 121.5 152t187.5 45q53 0 98.5 -15t73.5 -33t70 -33t88 -15t88 15t70 33t73.5 33t98.5 15q117 0 187.5 -45t121.5 -152q73 -156 127.5 -355.5t54.5 -410.5q0 -79 -42.5 -121t-118.5 -42q-65 0 -127 38q-44 27 -118 95 t-126 122l-53 54h-471q-22 -24 -58 -60.5t-115.5 -110t-123.5 -100.5q-62 -38 -127 -38q-76 0 -119 42t-43 121zM377 657q0 -86 46.5 -134t131.5 -48q86 0 134 48t48 134q0 87 -48 136t-134 49q-84 0 -131 -49t-47 -136zM436 657q0 123 119 123q121 0 121 -123 q0 -120 -121 -120q-119 0 -119 120zM1085 657q0 -17 16 -32t32 -15q15 0 31 15t16 32t-16 32.5t-31 15.5t-31.5 -15.5t-16.5 -32.5zM1204 539q0 -17 16 -32t31 -15t31 15t16 32t-16 32t-31 15t-31 -15t-16 -32zM1204 778q0 -17 16 -32t31 -15t31 15t16 32t-16 32t-31 15 t-31 -15t-16 -32zM1325 657q0 -17 16 -32t31 -15t31 15t16 32t-16 32.5t-31 15.5t-31 -15.5t-16 -32.5z" />
<glyph unicode="S" horiz-adv-x="1310" d="M123 195v1239q0 80 57.5 137t136.5 57h676q80 0 137.5 -57.5t57.5 -136.5v-1239q0 -79 -58 -137t-137 -58h-676q-79 0 -136.5 57.5t-57.5 137.5zM309 297q0 -66 64 -66q63 0 63 66q0 63 -63 63q-64 0 -64 -63zM309 582q0 -66 64 -66q63 0 63 66q0 63 -63 63 q-64 0 -64 -63zM309 866q0 -65 64 -65q63 0 63 65q0 64 -63 64q-64 0 -64 -64zM309 1251q0 -23 16.5 -39t39.5 -16h581q23 0 39 16t16 39v90q0 23 -16 39.5t-39 16.5h-581q-23 0 -39.5 -16.5t-16.5 -39.5v-90zM592 297q0 -66 63 -66q64 0 64 66q0 63 -64 63q-63 0 -63 -63z M592 582q0 -66 63 -66q64 0 64 66q0 63 -64 63q-63 0 -63 -63zM592 866q0 -65 63 -65q64 0 64 65q0 64 -64 64q-63 0 -63 -64zM874 297q0 -66 64 -66q63 0 63 66q0 63 -63 63q-64 0 -64 -63zM874 582q0 -66 64 -66q63 0 63 66q0 63 -63 63q-64 0 -64 -63zM874 866 q0 -65 64 -65q63 0 63 65q0 64 -63 64q-64 0 -64 -64z" />
<glyph unicode="T" horiz-adv-x="1474" d="M86 1292q0 46 33.5 79.5t79.5 33.5h1077q46 0 79.5 -33.5t33.5 -79.5t-33.5 -79t-79.5 -33h-8l-94 -1088q-3 -38 -28.5 -65t-62.5 -27h-692q-37 0 -62 27t-28 65l-94 1088h-8q-46 0 -79.5 33t-33.5 79zM205 1458q0 58 41.5 99.5t99.5 41.5h215v29q0 29 20.5 49.5 t49.5 20.5h213q29 0 49 -20.5t20 -49.5v-29h215q59 0 100.5 -41.5t41.5 -99.5h-1065zM426 1030l41 -760q2 -21 15 -35t34 -14q22 0 36.5 15.5t12.5 37.5l-41 760q-2 21 -15 35t-34 14q-23 1 -37 -15q-13 -14 -12 -33v-5zM688 270q0 -20 14.5 -34.5t34.5 -14.5t34.5 14.5 t14.5 34.5v764q0 20 -14.5 34.5t-34.5 14.5t-34.5 -14.5t-14.5 -34.5v-764zM909 274v-5q1 -19 13 -33q14 -16 36 -15q21 0 34.5 14t15.5 35l41 760q1 22 -13.5 37.5t-36.5 15.5q-21 0 -34 -14t-15 -35z" />
<glyph unicode="U" horiz-adv-x="1331" d="M104 367v522q0 44 32.5 76t76.5 32t76.5 -32t32.5 -76v-29l26 12v160q0 45 32 77t75 32q45 0 76.5 -31.5t31.5 -77.5v-129h25v600q0 45 31.5 77t76.5 32q43 0 75 -32.5t32 -76.5v-631l26 -12v70q0 44 32 76t75 32q45 0 76.5 -31.5t31.5 -76.5v-115h74q43 0 75 -32.5 t32 -77.5q0 -29 -13 -58l-170 -379q-40 -90 -95.5 -150t-149.5 -97t-222 -37q-230 0 -350.5 99.5t-120.5 283.5z" />
<glyph unicode="V" horiz-adv-x="1923" d="M96 1012q0 47 34.5 79.5t98.5 47.5q14 225 289 225q139 0 215 -61.5t76 -188.5q0 -60 -16 -96q48 -21 100 -82q28 46 68 76q-50 73 -50 194q0 326 383 326q184 0 284.5 -80t100.5 -246v-28q148 -39 148 -136q0 -163 -410 -163q-138 0 -203.5 6.5t-115.5 25.5 q-53 -43 -85 -107.5t-32 -137.5q0 -37 6 -64q161 -106 215 -317h389q12 0 22.5 -11t10.5 -24q0 -6 -2 -12l-49 -179q-17 -59 -70 -59h-850q-55 0 -71 59l-50 179q-2 6 -2 12q0 14 10 24.5t25 10.5h414q-71 201 -283 223q-31 -48 -76.5 -72t-130.5 -24q-63 0 -98 12 q-176 10 -176 141q0 72 51 111q39 127 223 127q160 0 207 -94q60 0 115 -21q0 37 6 64q-28 106 -127 145q-63 -31 -295 -31q-299 0 -299 146z" />
<glyph unicode="W" horiz-adv-x="1179" d="M115 1198q0 101 67 171.5t166 70.5v18q0 70 38.5 108t105.5 38t104 -38t37 -108v-18h55l291 155q18 9 29 9q25 0 41 -16.5t16 -41.5v-321q0 -23 -16.5 -39.5t-40.5 -16.5q-15 0 -25 7l-297 149h-104v-98q93 -26 153 -107.5t60 -183.5v-823q0 -46 -33.5 -79.5t-79.5 -33.5 h-381q-46 0 -79.5 33.5t-33.5 79.5v823q0 103 59.5 184t153.5 107v98h-53q-56 0 -85.5 -34.5t-29.5 -92.5q0 -25 -17 -42t-42 -17t-42 17t-17 42zM442 1458q0 -51 50 -51q49 0 49 51t-49 51q-50 0 -50 -51z" />
<glyph unicode="X" horiz-adv-x="1394" d="M121 590q0 37 26.5 63.5t63.5 26.5h33v735q0 28 20 48t49 20q28 0 48 -20t20 -48v-57h635v57q0 28 20.5 48t48.5 20q29 0 48.5 -20t19.5 -48v-735h33q38 0 64 -26.5t26 -63.5t-26 -63.5t-64 -26.5h-8l-344 -203l340 -201q34 -20 34 -59q0 -28 -19.5 -48t-47.5 -20 q-18 0 -37 11l-406 239l-403 -239q-19 -11 -37 -11q-28 0 -48 20t-20 48q0 39 35 59l338 201l-342 203h-10q-37 0 -63.5 26.5t-26.5 63.5zM381 680h635v250h-635v-250zM489 500l209 -125l211 125h-420zM561 1174q0 -8 6 -11l64 -49l-21 -86q-2 -10 6 -14q3 -2 7 -1q4 0 8 3 l69 45l72 -45q4 -3 8 -3l6 2q7 5 5 13l-19 86l62 49q6 3 6 11q0 14 -13 14l-84 6l-28 74q-3 10 -15 10q-10 0 -12 -10l-31 -74l-82 -6q-14 0 -14 -14z" />
<glyph unicode="Y" horiz-adv-x="1243" d="M92 494q0 303 201 436v321q0 137 96 233.5t232 96.5q138 0 233.5 -96.5t95.5 -233.5v-321q201 -133 201 -436q0 -245 -136.5 -383t-393.5 -138q-256 0 -392.5 138t-136.5 383zM475 1004q72 14 146 14q68 0 147 -14v247q0 62 -43 106t-104 44t-103.5 -44t-42.5 -106v-247z M512 555q0 -69 47 -92v-127q0 -26 18 -44t44 -18t43.5 18t17.5 44v127q47 23 47 92q0 48 -28 75t-80 27t-80.5 -27t-28.5 -75z" />
<glyph unicode="Z" horiz-adv-x="1718" d="M131 944q0 190 82 337t223.5 228.5t321.5 89.5v37q0 41 29.5 71t70.5 30q43 0 73 -30t30 -71v-37q273 -12 448.5 -191t175.5 -464q0 -46 -31 -77t-77 -31h-516v-531q0 -54 35.5 -90.5t88.5 -36.5t90 36.5t37 90.5v64q0 41 30 70.5t71 29.5q43 0 72.5 -29.5t29.5 -70.5 v-64q0 -135 -96.5 -231.5t-233.5 -96.5q-136 0 -231.5 95.5t-95.5 232.5v531h-518q-45 0 -77 31.5t-32 76.5z" />
<glyph unicode="a" horiz-adv-x="1726" d="M121 571q0 231 106 381t308 197v145q0 19 13 31t34 12h90q0 178 100 272.5t285 94.5h170q25 0 42 -17t17 -42t-17 -42.5t-42 -17.5h-170q-133 0 -198.5 -56.5t-65.5 -191.5h81q19 0 32.5 -12.5t13.5 -30.5v-145q203 -47 308 -196.5t105 -381.5q0 -282 -156 -440 t-450 -158t-450 158t-156 440zM913 858q0 -63 64 -63q63 0 63 63q0 30 -16.5 47t-46.5 17t-47 -17t-17 -47zM1167 1325v115q0 25 17.5 42t42.5 17t42 -17t17 -42v-115q0 -25 -17 -42t-42 -17t-42.5 17t-17.5 42zM1167 1849v115q0 25 17.5 42t42.5 17t42 -17t17 -42v-115 q0 -25 -17 -42t-42 -17t-42.5 17t-17.5 42zM1346 1458q0 24 18.5 42t40.5 18q24 0 43 -19l35 -35q18 -18 18 -43q0 -24 -18.5 -41.5t-40.5 -17.5q-25 0 -43 18l-35 35q-18 18 -18 43zM1346 1831q0 25 18 43l35 35q18 18 43 18q22 0 40.5 -17.5t18.5 -41.5q0 -25 -18 -43 l-35 -35q-18 -18 -43 -18q-22 0 -40.5 17.5t-18.5 41.5zM1372 1645q0 25 17.5 42t42.5 17h114q25 0 42.5 -17t17.5 -42t-17.5 -42.5t-42.5 -17.5h-114q-25 0 -42.5 17.5t-17.5 42.5z" />
<glyph unicode="b" horiz-adv-x="931" d="M113 260v424q0 133 86 225h538q76 -85 82 -213h-121q-12 0 -21 -9t-9 -21t9 -21.5t21 -9.5h121v-109h-121q-12 0 -21 -9t-9 -21t9 -21.5t21 -9.5h121v-109h-121q-12 0 -21 -9t-9 -21t9 -21.5t21 -9.5h121v-35q0 -135 -90 -210t-262 -75q-173 0 -263.5 75t-90.5 210z M137 1020v168q0 26 18 43.5t44 17.5h536q26 0 44 -17.5t18 -43.5v-168q0 -26 -18 -44t-44 -18h-536q-26 0 -44 18t-18 44zM274 1298q0 50 29.5 87.5t81.5 52.5l-25 90q-8 28 -8 49q0 56 30.5 85.5t82.5 29.5t82.5 -29.5t30.5 -85.5q0 -17 -9 -49l-24 -90q52 -15 81 -52.5 t29 -87.5h-381z" />
<glyph unicode="c" horiz-adv-x="1562" d="M133 111v770q0 56 43 88l539 395q29 20 65 20q39 0 68 -20l538 -395q44 -33 44 -88v-770q0 -46 -32.5 -78.5t-78.5 -32.5h-379v418q0 16 -11 27.5t-28 11.5h-239q-17 0 -28 -11.5t-11 -27.5v-418h-379q-46 0 -78.5 32.5t-32.5 78.5z" />
<glyph unicode="d" horiz-adv-x="1910" d="M88 938q0 29 23 55l309 361q24 30 63 30q54 0 76 -45l170 -360q45 122 150.5 185t259.5 63q159 0 274 -90t150 -215l237 -107q23 -11 23 -37t-23 -37l-237 -106q-32 -132 -124 -209t-235 -94v-209h146q26 0 43.5 -18t17.5 -44t-17.5 -43.5t-43.5 -17.5h-420 q-26 0 -44 17.5t-18 43.5t18 44t44 18h141v209q-158 17 -253.5 108.5t-115.5 249.5l-555 166q-26 8 -42.5 30t-16.5 52zM1257 897q0 -28 15 -43.5t43 -15.5q57 0 57 59t-57 59q-28 0 -43 -15.5t-15 -43.5z" />
<glyph unicode="e" horiz-adv-x="2174" d="M127 121v334q0 33 27 45v616q0 50 35.5 85.5t84.5 35.5h1627q49 0 84.5 -35.5t35.5 -85.5v-616q27 -12 27 -45v-334q0 -50 -35 -85.5t-86 -35.5h-1679q-51 0 -86 35.5t-35 85.5zM518 651q0 -65 35.5 -100t99.5 -35q65 0 101.5 35t36.5 100q0 68 -36.5 104t-101.5 36 q-64 0 -99.5 -36t-35.5 -104zM590 131q0 -51 51 -51t51 51t-51 51t-51 -51zM801 174q0 -51 51 -51t51 51t-51 51t-51 -51zM891 643q0 -11 8.5 -19t18.5 -8h339q11 0 19 8t8 19v137q0 10 -8 18.5t-19 8.5h-339q-10 0 -18.5 -8.5t-8.5 -18.5v-137zM1272 174q0 -51 51 -51 t51 51t-51 51t-51 -51zM1384 651q0 -65 36.5 -100t101.5 -35q64 0 99.5 35t35.5 100q0 68 -35.5 104t-99.5 36q-65 0 -101.5 -36t-36.5 -104zM1483 131q0 -51 51 -51t51 51t-51 51t-51 -51z" />
<glyph unicode="f" horiz-adv-x="1331" d="M104 367v786q0 44 32.5 76.5t76.5 32.5t76.5 -32.5t32.5 -76.5v-293l26 12v160q0 45 32 77t75 32q45 0 76.5 -31.5t31.5 -77.5v-129h25v131q0 45 31.5 77t76.5 32q43 0 75 -32.5t32 -76.5v-162l26 -12v465q0 44 32 76.5t75 32.5q45 0 76.5 -32t31.5 -77v-510h74 q43 0 75 -32.5t32 -77.5q0 -29 -13 -58l-170 -379q-40 -90 -95.5 -150t-149.5 -97t-222 -37q-230 0 -350.5 99.5t-120.5 283.5z" />
<glyph unicode="g" horiz-adv-x="1929" d="M143 709q0 33 23.5 56t56.5 23h135q33 0 56.5 -23t23.5 -56q0 -32 -24 -56t-56 -24h-135q-32 0 -56 24t-24 56zM393 221q0 33 25 58l45 47q25 22 57 22t56 -23t24 -57q0 -32 -22 -57l-48 -45q-25 -25 -57 -25q-31 0 -55.5 23.5t-24.5 56.5zM393 1196q0 33 24.5 56.5 t55.5 23.5q32 0 57 -25l48 -45q22 -25 22 -57q0 -34 -24 -57t-56 -23q-31 0 -57 23l-45 47q-25 25 -25 57zM547 709q0 206 110.5 315t307.5 109t307 -109t110 -315t-110 -315t-307 -109t-307.5 109t-110.5 315zM885 -39v135q0 33 23.5 56.5t56.5 23.5t56 -23.5t23 -56.5 v-135q0 -33 -23 -56.5t-56 -23.5t-56.5 23.5t-23.5 56.5zM885 1321v135q0 33 23.5 56.5t56.5 23.5t56 -23.5t23 -56.5v-135q0 -33 -23 -56.5t-56 -23.5t-56.5 23.5t-23.5 56.5zM1329 268q0 34 24 57t56 23t57 -22l45 -47q25 -25 25 -58t-24.5 -56.5t-55.5 -23.5 q-32 0 -57 25l-47 45q-23 26 -23 57zM1329 1149q0 31 23 57l47 45q25 25 57 25q31 0 55.5 -23.5t24.5 -56.5q0 -32 -25 -57l-45 -47q-26 -23 -57 -23q-32 0 -56 23t-24 57zM1491 709q0 33 23.5 56t56.5 23h135q33 0 56.5 -23t23.5 -56q0 -32 -24 -56t-56 -24h-135 q-32 0 -56 24t-24 56z" />
<glyph unicode="h" horiz-adv-x="2172" d="M145 342q0 162 88.5 253.5t253.5 92.5q24 243 176.5 371.5t403.5 128.5q204 0 343.5 -85t199.5 -249q198 0 308 -109.5t110 -316.5q0 -208 -111.5 -318t-310.5 -110h-1125q-159 0 -247.5 88.5t-88.5 253.5z" />
<glyph unicode="i" horiz-adv-x="2695" d="M125 877q0 26 18.5 44.5t44.5 18.5h107q26 0 44.5 -18.5t18.5 -44.5t-18.5 -45t-44.5 -19h-107q-26 0 -44.5 19t-18.5 45zM324 485q0 27 18 45l37 37q19 19 45 19q25 0 44 -18.5t19 -45.5t-18 -45l-37 -37q-18 -18 -45 -18q-25 0 -44 18t-19 45zM324 1264q0 27 19 45 t44 18q27 0 45 -18l37 -37q18 -18 18 -45t-19 -45.5t-44 -18.5q-26 0 -45 19l-37 37q-18 18 -18 45zM444 877q0 163 88 250t244 87q204 0 287 -141q-40 -48 -70 -110q-36 -74 -55 -172q-103 -6 -186 -65.5t-131 -158.5q-177 74 -177 310zM688 342q0 162 88.5 253.5 t253.5 92.5q24 243 176.5 371.5t403.5 128.5q204 0 343 -85t199 -249q198 0 308 -109.5t110 -316.5q0 -208 -111.5 -318t-310.5 -110h-1124q-159 0 -247.5 88.5t-88.5 253.5zM713 1364v106q0 26 18.5 45t44.5 19t45 -19t19 -45v-106q0 -26 -19 -45t-45 -19t-44.5 19 t-18.5 45zM1067 1227q0 27 18 45l37 37q18 18 45 18q26 0 45 -18t19 -45q0 -26 -19 -45l-36 -37q-19 -19 -46 -19q-25 0 -44 18.5t-19 45.5z" />
<glyph unicode="j" horiz-adv-x="2129" d="M98 72q0 29 21.5 50t50.5 21h1790q29 0 50.5 -21t21.5 -50t-21.5 -50.5t-50.5 -21.5h-1790q-29 0 -50.5 21.5t-21.5 50.5zM369 193v528q0 37 26.5 63.5t63.5 26.5h1212q37 0 63.5 -26.5t26.5 -63.5v-528h-1392zM580 862v307h966v-307h-966zM580 1214v68q0 37 26.5 63.5 t63.5 26.5h786q37 0 63.5 -26.5t26.5 -63.5v-68h-966zM582 502q0 -49 49 -49t49 49t-49 49t-49 -49zM983 502q0 -39 21.5 -60.5t60.5 -21.5t60.5 21.5t21.5 60.5q0 82 -82 82t-82 -82zM991 1479v241q0 31 21.5 52.5t52.5 21.5t52.5 -21.5t21.5 -52.5v-241q0 -31 -21.5 -52.5 t-52.5 -21.5t-52.5 21.5t-21.5 52.5zM997 1888q0 21 24.5 55.5t31.5 57.5q3 10 12 10t12 -10q7 -23 31.5 -57.5t24.5 -55.5q0 -63 -68 -63t-68 63zM1446 502q0 -49 49 -49t49 49t-49 49t-49 -49z" />
<glyph unicode="k" horiz-adv-x="1081" d="M102 326v530q0 134 72.5 221t212.5 113v375q-38 5 -63 32.5t-25 67.5q0 44 29 73t73 29h279q44 0 73 -29t29 -73q0 -40 -25 -67.5t-63 -32.5v-375q138 -26 211.5 -113.5t73.5 -220.5v-530q0 -169 -111 -261t-327 -92t-327.5 92t-111.5 261zM225 264q0 -15 15 -24 l194 -109q8 -4 15 -4q15 0 22 12l184 322l-243 137l-183 -319zM301 637l12 -57q2 -6 8 -8.5t11 1.5l55 45q5 4 3 11t-9 8l-68 12q-5 2 -9 -2t-3 -10zM356 740q-1 -2 -1 -3q0 -4 3 -6l41 -51q6 -6 13 -6t10 10l12 68q1 6 -4 10t-10 2l-55 -14q-7 -4 -9 -10zM455 670l239 -140 l154 269q6 12 6 18q0 16 -12 23l-195 110q-8 4 -14 4q-17 0 -25 -16zM625 881q0 11 7.5 18.5t18.5 7.5q7 0 15 -4l125 -72q12 -7 12 -22q0 -11 -8.5 -19t-18.5 -8q-8 0 -14 4l-125 72q-12 8 -12 23z" />
<glyph unicode="l" horiz-adv-x="2801" d="M123 600q0 63 44 107.5t107 44.5t107.5 -44.5t44.5 -107.5q0 -58 16.5 -103.5t43.5 -73.5t64 -46.5t73.5 -25.5t76.5 -7h609l520 315v25h328q0 -69 -52 -104v-236q49 0 93.5 12.5t86 39.5t66.5 79.5t25 124.5q0 63 44 107.5t107 44.5t107.5 -44.5t44.5 -107.5 q0 -118 -47.5 -218.5t-126 -169.5t-182 -118t-214.5 -71.5t-223 -22.5h-971q-112 0 -223 22.5t-214 71.5t-182 118t-126 169.5t-47 218.5zM1452 344h428v236q-4 2 -8 5t-6 5l-2 2zM1829 770v82h323v82h60q24 0 37 -19l45 25q13 8 24 8q16 0 26.5 -10t10.5 -27q0 -19 -20 -32 l-178 -109h-328zM1833 934q19 80 113 94q-41 23 -41 82v18h-52q-20 0 -20 21q0 20 20 20h45v48q0 8 6.5 15t16.5 7h143q9 0 15 -7t6 -15v-48h45q20 0 20 -20q0 -21 -20 -21h-49v-18q0 -57 -45 -82q100 -14 116 -94h-319z" />
<glyph unicode="m" horiz-adv-x="2273" d="M172 760v313q0 107 72.5 165t210.5 58t210 -58t72 -165v-313q0 -151 -131 -201v-438q0 -63 -44 -107.5t-107 -44.5t-107.5 44.5t-44.5 107.5v438q-131 50 -131 201zM307 1489q0 70 37.5 107.5t110.5 37.5t110 -37.5t37 -107.5t-37.5 -109t-109.5 -39t-110 39t-38 109z M987 201v1202q0 26 19 44.5t45 18.5t44.5 -18.5t18.5 -44.5v-1202q0 -26 -18.5 -45t-44.5 -19t-45 19t-19 45zM1339 518q0 26 9 78l90 477q24 130 86.5 176.5t195.5 46.5t196 -46.5t87 -176.5l90 -477q8 -47 8 -78q0 -77 -57.5 -117t-171.5 -51v-229q0 -63 -44.5 -107.5 t-107.5 -44.5t-107 44.5t-44 107.5v229q-114 11 -172 51t-58 117zM1546 1409q0 56 15 104t56 84.5t103 36.5t103 -36.5t56 -84.5t15 -104q0 -31 -16.5 -49.5t-46.5 -18.5h-221q-30 0 -47 18.5t-17 49.5z" />
<glyph unicode="n" horiz-adv-x="1779" d="M164 197v1110q0 81 58 139.5t138 58.5h1059q83 0 140 -58t57 -140v-1110q0 -80 -57.5 -138.5t-139.5 -58.5h-1059q-79 0 -137.5 58.5t-58.5 138.5zM328 242q0 -32 22 -54t51 -22h977q31 0 50.5 21.5t19.5 54.5v1020q0 31 -20 54t-50 23h-977q-28 0 -50.5 -23.5 t-22.5 -53.5v-1020zM436 1720q0 22 13.5 35.5t35.5 13.5q21 0 37 -16l29 -31v160q0 21 14 35t35 14q20 0 34.5 -14.5t14.5 -34.5v-160l29 31q16 16 35 16q22 0 36.5 -13.5t14.5 -35.5q0 -20 -14 -34l-113 -113q-19 -19 -37 -19t-37 19l-114 113q-13 13 -13 34zM467 678v188 q0 61 43.5 94t126.5 33q81 0 123.5 -33t42.5 -94v-188q0 -96 -76 -123v-260q0 -37 -26.5 -63.5t-63.5 -26.5q-38 0 -65 26.5t-27 63.5v260q-78 26 -78 123zM547 1114q0 37 23 61.5t67 24.5t67 -24.5t23 -61.5q0 -39 -23 -63.5t-67 -24.5t-67 24.5t-23 63.5zM889 535 q0 7 6 43l51 288q13 76 49.5 101.5t116.5 25.5q81 0 119 -25t51 -102l51 -288q4 -24 4 -43q0 -90 -135 -103v-137q0 -37 -26.5 -63.5t-63.5 -26.5q-38 0 -64 26.5t-26 63.5v137q-133 13 -133 103zM1010 1067q0 52 25.5 92.5t76.5 40.5q56 0 80.5 -40t24.5 -93 q0 -23 -9.5 -32t-33.5 -9h-123q-24 0 -32.5 8.5t-8.5 32.5zM1014 1765q0 21 14 35l113 113q18 18 37 18q18 0 36 -18l111 -111q16 -16 16 -37t-14 -35t-35 -14q-20 0 -37 17l-28 30v-159q0 -21 -14 -35.5t-35 -14.5q-20 0 -35 15t-15 35v159l-28 -30q-17 -17 -35 -17 q-22 0 -36.5 13.5t-14.5 35.5z" />
<glyph unicode="o" horiz-adv-x="2015" d="M135 1094q0 23 6 41l119 358q11 31 43 31q20 0 30.5 -11t18.5 -36l80 -240l309 -117l45 486q2 31 17 48t41 17q24 0 42.5 -18t26.5 -47l230 -631l307 -111q46 -17 72 -57t26 -86q0 -61 -45.5 -107.5t-107.5 -46.5q-25 0 -60 13l-1102 403q-42 14 -70 44t-28 67zM395 811 q0 23 16 38t38 15q23 0 39 -15t16 -38t-16 -38t-39 -15q-22 0 -38 15t-16 38zM438 86q0 37 25.5 62.5t60.5 25.5h1256q39 0 62.5 -25t23.5 -63q0 -36 -23.5 -61t-62.5 -25h-1256q-35 0 -60.5 25.5t-25.5 60.5zM547 758q0 22 15 37.5t38 15.5t38 -15.5t15 -37.5 q0 -24 -15 -40t-38 -16t-38 16t-15 40zM1202 510q0 23 15 38t38 15t38.5 -15t15.5 -38t-15.5 -38t-38.5 -15t-38 15t-15 38z" />
<glyph unicode="p" horiz-adv-x="2801" d="M123 311v899q0 52 33 85.5t84 33.5h1339v37q0 30 21 50t49 20q30 0 50.5 -20t20.5 -50v-37h205q56 0 78 -49l199 -436l417 -238q60 -34 60 -104v-191q0 -50 -33 -83t-84 -33h-125q-12 -94 -74 -144.5t-161 -50.5q-101 0 -161.5 50t-70.5 145h-1139q-7 -94 -69 -144.5 t-162 -50.5q-98 0 -160 50.5t-75 144.5h-125q-51 0 -84 33t-33 83zM506 242q0 -47 24.5 -72t69.5 -25q44 0 72 25.5t28 71.5q0 45 -28 70.5t-72 25.5t-69 -25t-25 -71zM610 938q0 -25 17.5 -42t42.5 -17h108v-109q0 -25 17.5 -42t42.5 -17t42 17t17 42v109h109q26 0 42.5 17 t16.5 42t-16.5 42t-42.5 17h-109v109q0 26 -17 42.5t-42 16.5t-42.5 -16.5t-17.5 -42.5v-109h-108q-25 0 -42.5 -17t-17.5 -42zM1581 887q0 -17 12 -29t29 -12h375q17 0 29 12t12 29q0 8 -4 16l-105 252q-14 31 -47 31h-260q-18 0 -29.5 -11.5t-11.5 -29.5v-258zM2109 242 q0 -46 25.5 -71.5t67.5 -25.5q46 0 72 25t26 72q0 46 -26 71t-72 25q-42 0 -67.5 -25.5t-25.5 -70.5z" />
<glyph unicode="q" horiz-adv-x="1196" d="M121 55v404q127 70 127 258q0 185 -127 258v403q0 23 16 39.5t39 16.5h838q23 0 39 -16.5t16 -39.5v-407q-121 -70 -121 -254q0 -180 121 -256v-406q0 -23 -16 -39t-39 -16h-307v1028q0 62 -44.5 106t-105.5 44t-105 -44t-44 -106v-1028h-232q-23 0 -39 16t-16 39z M467 653q0 33 19.5 51.5t50.5 18.5t50 -18.5t19 -51.5t-19 -51t-50 -18q-32 0 -51 18t-19 51z" />
<glyph unicode="r" horiz-adv-x="1961" d="M143 190v465q0 141 102.5 241.5t248.5 100.5h718q145 0 248 -100.5t103 -241.5v-465q0 -15 -11 -25.5t-26 -10.5h-1346q-17 0 -27 10.5t-10 25.5zM256 29v77h236v-77q0 -12 -8.5 -20.5t-20.5 -8.5h-178q-12 0 -20.5 8.5t-8.5 20.5zM440 1370q0 39 31 64q59 47 166 73.5 t217 26.5q109 0 216.5 -26.5t166.5 -73.5q29 -26 29 -64q0 -32 -23 -56t-55 -24q-18 0 -27 6v-249h-616v249q-9 -6 -27 -6q-32 0 -55 24t-23 56zM1161 29v77h236v-77q0 -12 -8.5 -20.5t-20.5 -8.5h-180q-11 0 -19 8.5t-8 20.5zM1610 487v148h182q11 0 19 -8.5t8 -20.5v-92 q0 -10 -8.5 -18.5t-18.5 -8.5h-182z" />
<glyph unicode="s" horiz-adv-x="1806" d="M70 588q0 59 35.5 134t89.5 140t125 109.5t135 44.5q28 0 52 -14.5t34 -40.5l241 -574q13 -26 13 -37q0 -28 -17 -45.5t-45 -17.5q-14 0 -28 4l-580 211q-24 8 -39.5 30.5t-15.5 55.5zM184 426l340 -117q13 -61 72 -164q16 -29 16 -59q0 -49 -30.5 -81t-77.5 -32 q-55 0 -109 58q-82 85 -139 197t-72 198zM555 1087q0 41 31.5 74.5t83 54t111.5 31t122 10.5t122 -10.5t111.5 -31t83 -54t31.5 -74.5q0 -15 -6 -30l-272 -676q-17 -45 -70 -45q-52 0 -69 45l-273 676q-6 15 -6 30zM1012 350q0 13 12 37l242 574q10 26 34 40.5t52 14.5 q64 0 135 -44.5t125 -109.5t89.5 -140t35.5 -134q0 -33 -16 -55.5t-40 -30.5l-579 -211q-14 -4 -29 -4q-28 0 -44.5 17.5t-16.5 45.5zM1194 86q0 30 16 59q59 103 72 164l340 117q-15 -86 -72 -198t-139 -197q-54 -58 -108 -58q-47 0 -78 32t-31 81z" />
<glyph unicode="t" horiz-adv-x="1515" d="M84 899q0 46 32.5 78.5t78.5 32.5h278q9 138 102 200q-57 136 -57 299q0 91 9.5 163t23.5 114.5t31.5 70.5t32.5 38t28 10t28 -10t32 -38t31 -70.5t23 -114.5t9 -163q0 -134 -39 -256h25q43 135 138.5 260.5t200.5 199t183 73.5q55 0 55 -55q0 -60 -52 -141t-126 -152.5 t-153 -129t-134 -77.5q133 -52 142 -221h317q46 0 78.5 -32.5t32.5 -78.5t-32.5 -78.5t-78.5 -32.5h-125v-675q0 -46 -33.5 -79.5t-79.5 -33.5h-655q-46 0 -79.5 33.5t-33.5 79.5v675h-122q-46 0 -78.5 32.5t-32.5 78.5zM582 1010h92q0 21 -13 32t-34 11q-20 0 -32.5 -11 t-12.5 -32zM805 1010h92q0 21 -13 32t-34 11q-20 0 -32.5 -11t-12.5 -32z" />
<glyph unicode="u" horiz-adv-x="2263" d="M123 78v1116q0 34 24 58t56 24h811q34 0 57 -24t23 -58v-1116q0 -31 -23.5 -54.5t-56.5 -23.5h-811q-32 0 -56 23.5t-24 54.5zM293 248q0 -15 11 -26t26 -11h557q15 0 26 11t11 26t-11 26t-26 11h-557q-15 0 -26 -11t-11 -26zM293 442q0 -15 11 -25.5t26 -10.5h557 q15 0 26 10.5t11 25.5t-11 26t-26 11h-557q-15 0 -26 -11t-11 -26zM293 637q0 -15 11 -26t26 -11h557q15 0 26 11t11 26t-11 26t-26 11h-557q-15 0 -26 -11t-11 -26zM293 821q0 -11 6.5 -17.5t17.5 -6.5h238q11 0 18 7t7 17q0 63 -38.5 97t-105.5 34t-105 -33.5t-38 -97.5z M373 1042q0 -63 63 -63q64 0 64 63q0 64 -64 64q-63 0 -63 -64zM1169 78v1116q0 33 23.5 57.5t54.5 24.5h99v-449q0 -11 8 -18.5t18 -7.5q13 0 25 12l73 70l72 -70q12 -12 25 -12q11 0 18.5 7.5t7.5 18.5v449h467q34 0 57 -24t23 -58v-1116q0 -31 -23.5 -54.5t-56.5 -23.5 h-813q-31 0 -54.5 23.5t-23.5 54.5zM1339 248q0 -15 11 -26t26 -11h557q15 0 26 11t11 26t-11 26t-26 11h-557q-15 0 -26 -11t-11 -26zM1339 442q0 -15 11 -25.5t26 -10.5h557q15 0 26 10.5t11 25.5t-11 26t-26 11h-557q-15 0 -26 -11t-11 -26zM1339 637q0 -15 11 -26 t26 -11h557q15 0 26 11t11 26t-11 26t-26 11h-557q-15 0 -26 -11t-11 -26zM1645 831q0 -15 10.5 -25.5t25.5 -10.5h252q15 0 26 10.5t11 25.5t-11 26t-26 11h-252q-15 0 -25.5 -11t-10.5 -26zM1645 1026q0 -15 10.5 -26t25.5 -11h252q15 0 26 11t11 26t-11 26t-26 11h-252 q-15 0 -25.5 -11t-10.5 -26z" />
<glyph unicode="v" horiz-adv-x="2017" d="M94 362q0 152 106 258.5t257 106.5q62 0 112 -16l99 188l-27 84h-61q-22 0 -38 15.5t-16 37.5t16 38t38 16h258q22 0 37.5 -16t15.5 -38t-15.5 -37.5t-37.5 -15.5h-74q1 -4 6 -23.5t8 -29.5h539l-12 31q-7 18 -7 30q0 26 18 44t44 18h209q61 0 102 -42t41 -104 q0 -58 -40 -98.5t-103 -40.5h-8q-22 0 -37 14.5t-15 36.5t15 36.5t37 14.5h8q17 0 28 10t11 27q0 18 -10.5 29.5t-28.5 11.5h-135l77 -227q24 4 54 4q149 0 253.5 -106t104.5 -257q0 -152 -104.5 -257t-255.5 -105t-258 106t-107 256q0 105 56 192.5t139 129.5l-15 49 l-317 -381q-23 -27 -47.5 -38t-63.5 -11h-135q-24 -132 -122 -217.5t-236 -85.5q-151 0 -257 105t-106 257zM207 362q0 -103 73.5 -176t176.5 -73q89 0 157 53t88 137h-245q-25 0 -42.5 17t-17.5 42q0 15 11 33l112 213q-23 6 -63 6q-103 0 -176.5 -74t-73.5 -178zM545 424 h157q-25 89 -88 137zM664 664q123 -88 151 -240h21l-117 344zM821 825l137 -401q16 0 31 18l322 383h-490zM1311 362q0 -103 74 -176t178 -73q103 0 176 73t73 176q0 104 -73 178t-176 74h-21l74 -221q6 -18 6 -31q0 -25 -17 -42t-42 -17q-46 0 -62 47l-71 228 q-119 -77 -119 -216z" />
<glyph unicode="w" horiz-adv-x="1904" d="M127 508q0 199 67.5 322.5t196.5 166.5v187q0 44 32 75t75 31q69 0 96 -53l119 -215h479l119 215q27 53 96 53q43 0 74.5 -31t31.5 -75v-187q129 -43 197 -167t68 -322q0 -247 -107.5 -377.5t-302.5 -130.5h-831q-195 0 -302.5 130.5t-107.5 377.5zM391 608q0 -69 70 -69 q69 0 69 69q0 70 -69 70q-70 0 -70 -70zM643 420q0 -80 40 -124t118 -44h303q78 0 118 44t40 124q0 81 -40 124.5t-118 43.5h-303q-78 0 -118 -43.5t-40 -124.5zM729 420q0 72 72 72q71 0 71 -72t-71 -72q-72 0 -72 72zM1032 420q0 72 72 72t72 -72t-72 -72t-72 72z M1374 608q0 -69 70 -69q69 0 69 69q0 70 -69 70q-70 0 -70 -70z" />
<glyph unicode="x" horiz-adv-x="1755" d="M82 96v1227q0 40 27 67t67 27h1403q40 0 67 -27t27 -67v-1227q0 -41 -27 -68.5t-67 -27.5h-1403q-40 0 -67 27.5t-27 68.5zM264 84q0 -9 6 -15t15 -6q20 0 20 21v1249q0 21 -20 21q-9 0 -15 -6t-6 -15v-1249zM385 709q0 -285 154 -436.5t428 -151.5q272 0 425.5 151.5 t153.5 436.5q0 286 -153.5 438.5t-425.5 152.5q-274 0 -428 -152.5t-154 -438.5zM772 709q0 97 51 146.5t144 49.5q91 0 140.5 -49.5t49.5 -146.5q0 -94 -50 -144.5t-140 -50.5q-92 0 -143.5 50.5t-51.5 144.5zM922 709q0 -45 45 -45q43 0 43 45t-43 45q-45 0 -45 -45z" />
<glyph unicode="y" horiz-adv-x="1396" d="M68 883v127q0 40 29 69t69 29h430v-248h-506q-9 0 -15.5 7t-6.5 16zM133 98v697q0 9 7 15.5t16 6.5h440v-817h-365q-40 0 -69 29t-29 69zM293 1278q0 19 12 33l158 186q15 19 37 19q26 0 39 -25l127 -272q6 -12 6 -25q0 -18 -12.5 -30.5t-30.5 -12.5q-9 0 -21 4l-284 84 q-31 10 -31 39zM725 1194q0 13 6 25l127 272q12 25 39 25q22 0 37 -19l158 -186q12 -14 12 -33q0 -29 -31 -39l-285 -84q-12 -4 -20 -4q-18 0 -30.5 12.5t-12.5 30.5zM801 0v817h440q9 0 16 -6.5t7 -15.5v-697q0 -40 -29.5 -69t-69.5 -29h-364zM801 860v248h430q40 0 69 -29 t29 -69v-127q0 -9 -6.5 -16t-15.5 -7h-506z" />
<glyph unicode="z" horiz-adv-x="1366" d="M94 272q0 148 79 225.5t220 77.5q34 0 58 -6v314q0 39 20.5 71t54.5 50v567q0 40 30 69t71 29q29 0 55 -16q29 16 57 16q41 0 71 -29t30 -69v-567q33 -18 54 -50.5t21 -70.5v-314q27 6 58 6q141 0 220 -77.5t79 -225.5q0 -145 -79.5 -222t-219.5 -77q-119 0 -193.5 56.5 t-97.5 165.5q-22 -108 -96 -165t-193 -57q-140 0 -219.5 77t-79.5 222zM254 272q0 -65 37.5 -100t101.5 -35t101.5 35t37.5 100q0 69 -37 104.5t-102 35.5t-102 -35.5t-37 -104.5zM604 782q0 -39 21 -60.5t57 -21.5q37 0 58.5 21.5t21.5 60.5q0 38 -21.5 59t-58.5 21 q-36 0 -57 -21t-21 -59zM655 754v55q0 11 8.5 19t18.5 8t18.5 -8t8.5 -19v-55q0 -10 -8.5 -18.5t-18.5 -8.5t-18.5 8.5t-8.5 18.5zM834 272q0 -65 37.5 -100t101.5 -35t101.5 35t37.5 100q0 69 -37 104.5t-102 35.5t-102 -35.5t-37 -104.5z" />
<glyph unicode="&#x2000;" horiz-adv-x="1011" />
<glyph unicode="&#x2001;" horiz-adv-x="2023" />
<glyph unicode="&#x2002;" horiz-adv-x="1011" />
<glyph unicode="&#x2003;" horiz-adv-x="2023" />
<glyph unicode="&#x2004;" horiz-adv-x="674" />
<glyph unicode="&#x2005;" horiz-adv-x="505" />
<glyph unicode="&#x2006;" horiz-adv-x="337" />
<glyph unicode="&#x2007;" horiz-adv-x="337" />
<glyph unicode="&#x2008;" horiz-adv-x="252" />
<glyph unicode="&#x2009;" horiz-adv-x="404" />
<glyph unicode="&#x200a;" horiz-adv-x="112" />
<glyph unicode="&#x202f;" horiz-adv-x="404" />
<glyph unicode="&#x205f;" horiz-adv-x="505" />
<glyph unicode="&#xe000;" d="M0 0v1413h1413v-1413h-1413z" />
</font>
</defs>
</svg>
